<svg width="86" height="86" viewBox="0 0 86 86" fill="none" xmlns="http://www.w3.org/2000/svg">
<path fill-rule="evenodd" clip-rule="evenodd" d="M85.346 42.6751C85.346 66.2439 66.2407 85.3502 42.673 85.3502C19.1054 85.3502 0 66.2439 0 42.6751C0 19.1063 19.1054 0 42.673 0C66.2407 0 85.346 19.1063 85.346 42.6751ZM52.925 26.8198C58.861 28.8583 63.2032 31.9107 62.3513 37.5913C61.7326 41.751 59.4182 43.7629 56.343 44.4673C60.562 46.6552 61.9998 50.8075 60.6638 55.8284C58.1271 63.0539 52.0973 63.6623 44.0773 62.1521L42.1299 69.9192L37.4288 68.7505L39.3494 61.0874C38.1306 60.7859 36.8851 60.4631 35.602 60.1189L33.6733 67.8193L28.9776 66.6506L30.9223 58.8675L21.4531 56.4875L23.7889 51.1244C23.7889 51.1244 27.2552 52.0396 27.207 51.9729C28.5383 52.3011 29.1302 51.4366 29.3633 50.8629L34.6403 29.7815C34.6992 28.7863 34.3537 27.5322 32.4491 27.0573C32.5215 27.0066 29.0338 26.2115 29.0338 26.2115L30.2848 21.2086L39.7673 23.5486L41.696 15.8535L46.3944 17.0222L44.5059 24.5652C45.7703 24.8507 47.04 25.1415 48.2748 25.4484L50.1499 17.9534L54.851 19.1221L52.925 26.8198ZM41.6762 39.6563C44.8786 40.5053 51.8469 42.3528 53.0615 37.5087C54.3006 32.5525 47.5306 31.0557 44.2159 30.3228L44.2157 30.3228C43.8401 30.2397 43.5089 30.1665 43.2387 30.0991L40.8976 39.4538C41.1203 39.5089 41.382 39.5783 41.6752 39.656L41.6761 39.6562L41.6762 39.6563ZM38.0479 54.7177C41.8835 55.728 50.2721 57.9378 51.6069 52.6C52.9731 47.1422 44.8398 45.3243 40.8713 44.4373L40.8713 44.4373C40.4279 44.3382 40.0366 44.2508 39.7162 44.1711L37.1339 54.481C37.3959 54.5459 37.7028 54.6268 38.0462 54.7172L38.0467 54.7174L38.0479 54.7177Z" fill="#F7931A"/>
</svg>
