<svg width="133" height="55" viewBox="0 0 133 55" fill="none" xmlns="http://www.w3.org/2000/svg">
<path fill-rule="evenodd" clip-rule="evenodd" d="M61.0136 42.6095V26.6236H69.2642C72.6451 26.6236 75.4987 25.4908 77.825 23.2565L78.3833 22.6901C82.6327 18.0643 82.3536 10.858 77.825 6.57834C75.5607 4.31263 72.459 3.08537 69.2642 3.1483H56.0198V42.6095H61.0136ZM61.0142 21.7775V7.99435H69.3902C71.1895 7.99435 72.8957 8.68665 74.1676 9.94538C76.8666 12.5887 76.9286 16.9943 74.3227 19.732C73.0508 21.0852 71.2515 21.8404 69.3902 21.7775H61.0142ZM101.678 17.7181C99.5373 15.7356 96.6217 14.7287 92.9306 14.7287C88.1849 14.7287 84.6179 16.4909 82.2606 19.9839L86.6651 22.7845C88.278 20.3929 90.4802 19.1972 93.2718 19.1972C95.0398 19.1972 96.7457 19.858 98.0795 21.0538C99.3822 22.1866 100.127 23.823 100.127 25.5537V26.7181C98.2036 25.6481 95.7842 25.0817 92.8065 25.0817C89.3326 25.0817 86.541 25.8999 84.4629 27.5677C82.3847 29.2355 81.3301 31.4383 81.3301 34.239C81.2681 36.7879 82.3537 39.211 84.2767 40.8473C86.2308 42.6096 88.7122 43.4907 91.6279 43.4907C95.0708 43.4907 97.8003 41.9487 99.8785 38.8648H100.096V42.6096H104.872V25.9628C104.872 22.4699 103.818 19.7006 101.678 17.7181ZM88.1238 37.6375C87.1 36.8823 86.4796 35.655 86.4796 34.3334C86.4796 32.8544 87.1621 31.6271 88.496 30.6516C89.861 29.6761 91.5673 29.1726 93.5837 29.1726C96.3757 29.1411 98.5473 29.7705 100.098 31.0292C100.098 33.169 99.2608 35.0257 97.6166 36.5991C96.1275 38.1096 94.1111 38.9592 92.0016 38.9592C90.6056 38.9907 89.2406 38.5187 88.1238 37.6375ZM115.604 54.4731L132.292 15.6098H126.864L119.14 34.9942H119.047L111.138 15.6098H105.71L116.659 40.8788L110.456 54.4731H115.604Z" fill="#3C4043"/>
<path d="M43.7732 23.162C43.7732 21.62 43.6491 20.0781 43.401 18.5676H22.3401V27.2843H34.4059C33.9096 30.085 32.2967 32.6025 29.9394 34.1759V39.8402H37.1355C41.3538 35.9066 43.7732 30.085 43.7732 23.162Z" fill="#4285F4"/>
<path d="M22.3411 45.3158C28.3585 45.3158 33.4453 43.3018 37.1364 39.8403L29.9404 34.176C27.9242 35.5606 25.3498 36.3473 22.3411 36.3473C16.5098 36.3473 11.5781 32.3508 9.81007 27.0012H2.39691V32.8543C6.18104 40.5011 13.9044 45.3158 22.3411 45.3158Z" fill="#34A853"/>
<path d="M9.81088 27.0013C8.88021 24.2006 8.88021 21.1482 9.81088 18.316V12.4944H2.39654C-0.798765 18.8824 -0.798765 26.4348 2.39654 32.8229L9.81088 27.0013Z" fill="#FBBC04"/>
<path d="M22.3411 8.96983C25.5359 8.90689 28.6066 10.1342 30.9019 12.3684L37.2915 5.88594C33.2282 2.04681 27.8932 -0.061567 22.3411 0.00136953C13.9044 0.00136953 6.18104 4.84748 2.39691 12.4943L9.81007 18.3474C11.5781 12.9663 16.5098 8.96983 22.3411 8.96983Z" fill="#EA4335"/>
</svg>
