<svg xmlns="http://www.w3.org/2000/svg" version="1.1" viewBox="186.66 112.78 434.82 405.48">
<path d="M0 0 C2.48327963 1.02555707 4.72428346 2.08278781 7.07421875 3.3515625 C8.49881881 4.09217848 9.92380587 4.83205036 11.34912109 5.57128906 C12.10304138 5.9669104 12.85696167 6.36253174 13.63372803 6.7701416 C17.75448701 8.91188613 21.92116661 10.9610386 26.08203125 13.0234375 C27.85766834 13.90835979 29.63305615 14.79378244 31.40820312 15.6796875 C34.10532551 17.02519958 36.80272446 18.37013575 39.5012207 19.71289062 C48.86263347 24.37185404 58.19268842 29.07141422 67.42578125 33.98046875 C78.8804731 40.06193394 90.55995912 45.67378489 102.23339844 51.32006836 C114.42121539 57.22099959 126.49819964 63.28083662 138.46313477 69.62255859 C142.45677452 71.73264622 146.49278319 73.7284193 150.5625 75.6875 C162.82897615 81.82073808 172.93622809 88.20525972 178.4375 101.1875 C181.54760756 110.7457185 181.12816837 120.86143372 177 130 C176.6596875 130.82113281 176.319375 131.64226562 175.96875 132.48828125 C171.08828123 143.35391949 163.01173861 149.06083303 153 155 C152.23171875 155.47953125 151.4634375 155.9590625 150.671875 156.453125 C143.4313749 160.93533935 135.87835147 164.83096475 128.33691406 168.77490234 C125.9684689 170.01652978 123.60477202 171.26679181 121.2421875 172.51953125 C113.94911726 176.38253414 106.64520052 180.21072861 99.25 183.875 C85.46587844 190.70519309 71.84815447 197.88020599 58.32421875 205.2109375 C53.91703318 207.58284231 49.49093008 209.91805229 45.0625 212.25 C43.85352051 212.88736084 43.85352051 212.88736084 42.62011719 213.53759766 C38.43526421 215.73853978 34.22924784 217.88537608 30 220 C27.18093851 221.46675096 24.37217173 222.95286071 21.5625 224.4375 C19.88417026 225.32041834 18.20578208 226.20322561 16.52734375 227.0859375 C12.61831269 229.14362082 8.71634329 231.21420119 4.81640625 233.2890625 C2.75270327 234.38039577 0.68890284 235.47154476 -1.375 236.5625 C-2.35525146 237.08706787 -3.33550293 237.61163574 -4.34545898 238.15209961 C-5.27044189 238.6394458 -6.1954248 239.12679199 -7.1484375 239.62890625 C-7.96489746 240.06275635 -8.78135742 240.49660645 -9.62255859 240.94360352 C-12.08284249 242.03681038 -14.34875928 242.57541255 -17 243 C-17 243.66 -17 244.32 -17 245 C-19.84219413 246.52352051 -22.70038558 248.01428823 -25.5625 249.5 C-26.76229492 250.14388672 -26.76229492 250.14388672 -27.98632812 250.80078125 C-32.82973788 253.29167769 -36.43503004 254.81894691 -42 254 C-44.61648929 252.95397433 -46.91967307 251.89546255 -49.375 250.5625 C-50.06271484 250.20414063 -50.75042969 249.84578125 -51.45898438 249.4765625 C-53.64719098 248.33196212 -55.82394377 247.1675099 -58 246 C-59.41880536 245.24781927 -60.83807258 244.49650902 -62.2578125 243.74609375 C-64.39474612 242.61515287 -66.53122844 241.4834056 -68.66625977 240.34887695 C-78.37731196 235.19286745 -88.17545778 230.28689224 -98.16015625 225.6796875 C-98.79224503 225.38779541 -99.4243338 225.09590332 -100.07557678 224.79516602 C-103.27394785 223.31973037 -106.47520164 221.85103086 -109.6809082 220.39160156 C-110.85613037 219.85245117 -112.03135254 219.31330078 -113.2421875 218.7578125 C-114.3029248 218.2745752 -115.36366211 217.79133789 -116.45654297 217.29345703 C-119 216 -119 216 -121 214 C-121 213.01 -121 212.02 -121 211 C-111.88538827 209.03097155 -102.69590643 207.76020898 -93.4609375 206.5 C-92.30078125 206.335 -91.140625 206.17 -89.9453125 206 C-88.37547607 205.7834375 -88.37547607 205.7834375 -86.77392578 205.5625 C-84.15460391 205.03135077 -82.35105773 204.20908023 -80 203 C-73.86254855 202.44204987 -69.9062157 203.51320509 -64.5 206.5 C-63.82219482 206.85441162 -63.14438965 207.20882324 -62.44604492 207.57397461 C-60.28949885 208.70175069 -58.144338 209.84920367 -56 211 C-53.1136312 212.53969397 -50.2165566 214.05649295 -47.3125 215.5625 C-46.65378906 215.92085937 -45.99507812 216.27921875 -45.31640625 216.6484375 C-42.65843586 218.02684776 -40.55587501 219.00703639 -37.53125 218.96875 C-33.91137001 217.58336383 -30.57809185 215.80739963 -27.1875 213.9375 C-25.64669382 213.10387634 -24.10500833 212.2718761 -22.5625 211.44140625 C-21.79035156 211.0252002 -21.01820313 210.60899414 -20.22265625 210.18017578 C-17.07705526 208.50993905 -13.88572537 206.94129507 -10.6875 205.375 C-2.828824 201.49825162 4.86901683 197.33275864 12.5796814 193.17123413 C23.02545078 187.5388804 33.55829848 182.08903755 44.125 176.6875 C53.74823686 171.76672036 63.33642529 166.82511715 72.7421875 161.49633789 C84.30148215 154.96436935 96.14397696 148.90330372 108.02929688 142.98779297 C130.12331245 133.5279858 130.12331245 133.5279858 147 118 C147.48795724 114.92334263 147.48795724 114.92334263 146 112 C140.89527382 106.27274623 134.15746868 103.40222939 127.35546875 100.125 C123.15003591 98.09575932 119.0447569 95.90700127 114.9375 93.6875 C107.22544976 89.55201351 99.36032335 85.77199325 91.45458984 82.02294922 C83.87864145 78.4299582 76.36634497 74.72817167 68.8828125 70.94726562 C66.94633893 69.97300247 65.00519729 69.00866313 63.0625 68.046875 C56.29706279 64.69313929 49.58934337 61.26149529 42.9375 57.6875 C33.37625672 52.56681063 23.60070129 47.88291014 13.77050781 43.30273438 C11.848001 42.39874281 9.93645891 41.47120611 8.03417969 40.52539062 C7.07157227 40.05810547 6.10896484 39.59082031 5.1171875 39.109375 C3.82337158 38.46693848 3.82337158 38.46693848 2.50341797 37.81152344 C-0.46051116 36.85071786 -2.05175832 37.08076928 -5 38 C-7.30724831 39.4646497 -7.30724831 39.4646497 -9.625 41.375 C-16.88927955 46.847685 -24.76504956 51.16796397 -32.65917969 55.65820312 C-36.09046146 57.62507052 -39.48659284 59.64787195 -42.875 61.6875 C-43.48674072 62.05496338 -44.09848145 62.42242676 -44.72875977 62.80102539 C-48.57416185 65.11882326 -52.38244244 67.49139977 -56.1875 69.875 C-81.11336307 85.14246607 -107.90346285 97.11616313 -135 108 C-135.73250977 108.2985791 -136.46501953 108.5971582 -137.21972656 108.90478516 C-148.7300647 113.569346 -160.4568677 117.57719369 -172.25250244 121.45031738 C-173.845409 121.97344714 -175.437527 122.49898574 -177.02874756 123.02722168 C-188.22967469 126.73439698 -199.44053046 129.63858142 -211 132 C-211 132.66 -211 133.32 -211 134 C-210.45327637 134.17233154 -209.90655273 134.34466309 -209.34326172 134.5222168 C-203.78096594 136.3195492 -198.47225296 138.46173404 -193.125 140.8125 C-183.59576091 144.89632519 -173.96998048 148.17570308 -164 151 C-163.29117676 151.21172852 -162.58235352 151.42345703 -161.85205078 151.64160156 C-127.80844282 161.63998026 -90.24720638 152.30721054 -59.6953125 135.92871094 C-56.67019932 134.27152048 -53.71047668 132.52776633 -50.78125 130.70703125 C-48.44440567 129.27276022 -46.09180665 127.88454023 -43.71875 126.51171875 C-42.57007446 125.845354 -42.57007446 125.845354 -41.39819336 125.16552734 C-39.8670039 124.2785354 -38.33402027 123.3946319 -36.79907227 122.51416016 C-36.09322998 122.10343262 -35.3873877 121.69270508 -34.66015625 121.26953125 C-34.02730713 120.90448486 -33.39445801 120.53943848 -32.74243164 120.16333008 C-30.91903118 118.94594138 -29.49508377 117.5973019 -28 116 C-28.51046875 115.6596875 -29.0209375 115.319375 -29.546875 114.96875 C-31.10096444 113.93269037 -32.65284384 112.89331194 -34.203125 111.8515625 C-36.19801242 110.53092474 -38.21056806 109.23681579 -40.234375 107.9609375 C-41.31203125 107.27257812 -42.3896875 106.58421875 -43.5 105.875 C-44.5209375 105.23304688 -45.541875 104.59109375 -46.59375 103.9296875 C-49 102 -49 102 -49.84375 99.7578125 C-49.8953125 99.17773438 -49.946875 98.59765625 -50 98 C-46.18362542 96.28806858 -42.7428931 95.55811604 -38.59594727 95.0703125 C-37.32014297 94.91675293 -36.04433868 94.76319336 -34.72987366 94.60498047 C-33.34206175 94.44489537 -31.95423899 94.28490433 -30.56640625 94.125 C-29.12727767 93.95393654 -27.68822743 93.78221293 -26.24925232 93.60986328 C-22.45939792 93.1575157 -18.668652 92.71314673 -14.87762451 92.27075195 C-8.8433285 91.56504588 -2.81056757 90.84629871 3.22239876 90.1293335 C5.30781356 89.88249025 7.39353908 89.63844837 9.47935486 89.39501953 C16.97575311 88.51235822 24.44149184 87.5274759 31.90101624 86.37158203 C34.96707449 86.00394792 37.9153408 85.93454189 41 86 C42.52614334 90.78258259 41.27296766 94.61456779 39.8671875 99.24609375 C39.51865723 100.44623611 39.51865723 100.44623611 39.16308594 101.67062378 C38.66620768 103.37946926 38.1645798 105.08693963 37.65863037 106.79312134 C36.35228101 111.20142721 35.08116112 115.6197863 33.8125 120.0390625 C33.5636203 120.90431046 33.3147406 121.76955841 33.05831909 122.661026 C30.63304588 131.15951702 28.63130311 139.71653297 26.8046875 148.36328125 C26 152 26 152 25 154 C19.98606349 153.55738042 17.74064847 152.33029376 14.1875 148.8125 C10.98009578 145.80284551 7.8079001 142.90442723 4.25 140.3125 C3.23679687 139.56419922 3.23679687 139.56419922 2.203125 138.80078125 C-1.12815032 137.58994536 -2.82365257 138.55295311 -6 140 C-8.13576058 141.43037177 -10.15401585 142.87717114 -12.1875 144.4375 C-19.95812956 150.18229064 -28.19542672 154.93166649 -36.61816406 159.64746094 C-38.87966266 160.93166576 -41.10957506 162.2575936 -43.3359375 163.6015625 C-55.59559127 170.88847558 -68.49198465 175.53802426 -82 180 C-83.51048641 180.52193362 -85.02091098 181.04404628 -86.53125 181.56640625 C-129.44322649 195.85163796 -173.95327095 186.63856217 -213.31640625 167.04394531 C-217.95010076 164.71825104 -222.56809955 162.36225074 -227.17724609 159.98831177 C-239.19777845 153.76505506 -239.19777845 153.76505506 -251.39257812 147.89819336 C-253 147 -253 147 -254 145 C-254.08649451 142.51900266 -254.11565054 140.06655072 -254.09765625 137.5859375 C-254.0962413 136.85629791 -254.09482635 136.12665833 -254.09336853 135.37490845 C-254.08776531 133.04156415 -254.07521235 130.70831536 -254.0625 128.375 C-254.05748541 126.79427222 -254.05292243 125.21354293 -254.04882812 123.6328125 C-254.03779484 119.75517146 -254.02052811 115.87760193 -254 112 C-248.92365648 110.01311803 -244.00999261 108.41836154 -238.6875 107.1875 C-231.01944965 105.34713174 -223.5535302 103.03067719 -216.05078125 100.61328125 C-211.83133718 99.25536511 -207.59491394 97.96409836 -203.34887695 96.69213867 C-192.60486344 93.46903092 -181.90737268 90.10107151 -171.22821045 86.66998291 C-169.59584377 86.14633746 -167.96276104 85.62491811 -166.32891846 85.105896 C-158.1282992 82.49776797 -150.14502056 79.83110197 -142.36572266 76.11230469 C-138.76201493 74.41792983 -135.04364989 73.07094089 -131.3125 71.6875 C-119.26906764 67.10260422 -108.02964989 61.13279211 -96.71850586 55.00024414 C-92.01868318 52.47696102 -87.22413557 50.21992288 -82.375 48 C-74.85295556 44.53526478 -67.95549652 40.50879833 -61 36 C-55.55416892 32.52367217 -50.0992516 29.06166188 -44.640625 25.60546875 C-36.23827994 20.28129418 -27.83957994 14.9551972 -19.5625 9.4375 C-18.99112305 9.05682373 -18.41974609 8.67614746 -17.83105469 8.28393555 C-14.4781417 6.03495796 -14.4781417 6.03495796 -11.24951172 3.61376953 C-10.66057129 3.15470215 -10.07163086 2.69563477 -9.46484375 2.22265625 C-8.94398193 1.79863525 -8.42312012 1.37461426 -7.88647461 0.93774414 C-5.0695685 -0.46250646 -3.12079773 -0.33707072 0 0 Z " fill="#2AE18F" transform="translate(441,113)"/>
<path d="M0 0 C0.54785156 0.23589844 1.09570312 0.47179687 1.66015625 0.71484375 C3.31764272 5.77280841 3.98496858 10.31061556 3.91015625 15.65234375 C3.90266357 16.35891113 3.8951709 17.06547852 3.88745117 17.79345703 C3.6252757 30.46868886 -1.2257215 40.23556127 -9.88671875 49.3984375 C-13.72900502 53.02658361 -17.87316076 55.91099134 -22.33984375 58.71484375 C-23.08492187 59.20339844 -23.83 59.69195312 -24.59765625 60.1953125 C-30.32167397 63.81405591 -36.32995354 66.64270023 -42.46484375 69.47460938 C-54.03354052 74.84579002 -65.24978823 80.92184314 -76.33984375 87.21484375 C-88.59874739 94.1711018 -101.02426731 100.71715363 -113.83544922 106.59692383 C-121.35120214 110.09672608 -128.55266249 114.14757811 -135.78125 118.19921875 C-139.25387196 120.1372573 -142.76483711 121.95676643 -146.33178711 123.71386719 C-150.03740739 125.56104568 -153.68280613 127.52377155 -157.33984375 129.46484375 C-163.25663112 132.59834127 -169.19980857 135.65001948 -175.21484375 138.58984375 C-183.5567371 142.68859171 -191.5826263 147.32791942 -199.625 151.98046875 C-200.43340332 152.44517578 -201.24180664 152.90988281 -202.07470703 153.38867188 C-203.49898478 154.2225452 -204.91115562 155.07782489 -206.30419922 155.96289062 C-210.22656778 158.40939949 -212.74651854 159.51951386 -217.33984375 158.71484375 C-220.91424848 157.26064658 -224.30410492 155.51509106 -227.71484375 153.71484375 C-228.64167969 153.23789062 -229.56851563 152.7609375 -230.5234375 152.26953125 C-232.80139598 151.09532585 -235.07297362 149.91027596 -237.33984375 148.71484375 C-237.33984375 148.05484375 -237.33984375 147.39484375 -237.33984375 146.71484375 C-238.15582031 146.47636719 -238.97179687 146.23789062 -239.8125 145.9921875 C-244.04629314 144.45901988 -247.83030269 142.42695666 -251.77734375 140.27734375 C-259.13858187 136.32606422 -266.59194151 132.64402759 -274.15234375 129.08984375 C-281.66173358 125.54977332 -288.89056348 121.81942829 -296.04296875 117.6015625 C-300.29313551 115.16929882 -304.65148472 113.00793131 -309.04443359 110.84814453 C-314.21840248 108.29745785 -319.31381127 105.61884623 -324.40234375 102.90234375 C-331.46134252 99.14633886 -338.61057816 95.6307648 -345.83984375 92.21484375 C-353.49671781 88.5946586 -361.03689174 84.83144526 -368.50390625 80.8359375 C-375.67987753 77.01666022 -382.94606694 73.38831094 -390.22357178 69.76776123 C-410.15678893 59.85030589 -410.15678893 59.85030589 -419.65234375 54.90234375 C-420.40966797 54.51240234 -421.16699219 54.12246094 -421.94726562 53.72070312 C-428.49016826 50.2793464 -428.49016826 50.2793464 -430.33984375 47.71484375 C-430.69628906 44.54443359 -430.69628906 44.54443359 -430.66796875 40.67578125 C-430.66609558 39.99432037 -430.66422241 39.3128595 -430.66229248 38.61074829 C-430.65557981 37.17339164 -430.64168068 35.73605301 -430.62109375 34.29882812 C-430.58985975 32.09097452 -430.58011475 29.88383416 -430.57421875 27.67578125 C-430.50330803 16.87830803 -430.50330803 16.87830803 -429.33984375 15.71484375 C-424.07380154 16.10161753 -419.98102668 17.57150693 -415.38671875 20.0390625 C-414.73720749 20.37710907 -414.08769623 20.71515564 -413.41850281 21.06344604 C-411.30378855 22.16685842 -409.19696561 23.28451172 -407.08984375 24.40234375 C-405.61520194 25.17477323 -404.14001591 25.94616458 -402.66430664 26.71655273 C-399.66491107 28.28408312 -396.66839939 29.85691677 -393.67431641 31.43457031 C-387.39019969 34.74419931 -381.08357986 38.01009996 -374.77734375 41.27734375 C-373.66004883 41.85766357 -372.54275391 42.4379834 -371.39160156 43.03588867 C-365.13248781 46.28371095 -358.85339554 49.4821572 -352.53295898 52.60864258 C-344.91616098 56.39281575 -337.39102609 60.35541939 -329.84765625 64.28320312 C-321.10081162 68.82708177 -312.30753827 73.26956322 -303.46875 77.63183594 C-297.91848856 80.38138035 -292.45484609 83.25191763 -287.02783203 86.23730469 C-275.3141501 92.67610605 -263.5310342 98.89508116 -251.20092773 104.07763672 C-246.89224808 105.91096648 -243.23301877 108.08047891 -239.33984375 110.71484375 C-236.71043846 112.1256519 -234.02843004 113.42108794 -231.33984375 114.71484375 C-227.39806644 116.61163885 -223.78303872 118.38018632 -220.27734375 121.02734375 C-217.4160933 122.98950392 -217.4160933 122.98950392 -213.9609375 122.75 C-209.58004327 121.49764081 -206.22740836 119.57657994 -202.40234375 117.15234375 C-196.93696302 113.81522285 -191.47103909 110.64817835 -185.71484375 107.83984375 C-179.30884195 104.70546718 -172.96912945 101.46315089 -166.65234375 98.15234375 C-160.04508817 94.69145365 -153.43303154 91.24062977 -146.8046875 87.8203125 C-146.1638472 87.48952194 -145.5230069 87.15873138 -144.86274719 86.81791687 C-142.32547429 85.50848219 -139.78810214 84.19924877 -137.24942017 82.89254761 C-130.39358321 79.36362157 -123.57373367 75.78435768 -116.81494141 72.07275391 C-113.27667377 70.13155795 -109.71829344 68.22960452 -106.15234375 66.33984375 C-105.43530273 65.95973145 -104.71826172 65.57961914 -103.97949219 65.18798828 C-99.04926873 62.58682571 -94.08386105 60.06599614 -89.08984375 57.58984375 C-78.17019014 52.1703719 -67.51595375 46.28338918 -56.87182617 40.34521484 C-52.69268473 38.01439389 -48.49790644 35.72015144 -44.27734375 33.46484375 C-42.62740404 32.55558905 -40.98137123 31.63919903 -39.33984375 30.71484375 C-38.02113281 29.98007812 -38.02113281 29.98007812 -36.67578125 29.23046875 C-34.36900608 27.8449753 -32.29904497 26.55963906 -30.33984375 24.71484375 C-29.83889352 21.58790603 -29.83889352 21.58790603 -30.33984375 18.71484375 C-28.00690702 15.66471445 -24.65500939 13.97105788 -21.40234375 12.02734375 C-17.85266095 9.90095158 -14.34611269 7.7554326 -10.95703125 5.37890625 C-9.90773438 4.64414062 -8.8584375 3.909375 -7.77734375 3.15234375 C-6.82730469 2.47042969 -5.87726563 1.78851563 -4.8984375 1.0859375 C-2.33984375 -0.28515625 -2.33984375 -0.28515625 0 0 Z " fill="#28DF8F" transform="translate(617.33984375,359.28515625)"/>
<path d="M0 0 C1.75 1.3515625 1.75 1.3515625 2.5 4.1640625 C2.61925302 5.55728677 2.69580579 6.95429441 2.75 8.3515625 C2.78996094 9.35316406 2.82992188 10.35476563 2.87109375 11.38671875 C3.14907429 25.3675046 -0.00982902 36.69938996 -9.75390625 47.125 C-14.7623369 51.59261419 -20.50564142 54.9206316 -26.25 58.3515625 C-27.08402344 58.87363281 -27.91804688 59.39570313 -28.77734375 59.93359375 C-35.96188661 64.3916947 -43.48597253 68.2377431 -50.97265625 72.15625 C-53.26671632 73.36033642 -55.55597828 74.5730748 -57.84375 75.7890625 C-58.59261475 76.18697998 -59.34147949 76.58489746 -60.11303711 76.99487305 C-61.53075199 77.74850126 -62.94824925 78.50253906 -64.36547852 79.25708008 C-68.26856482 81.3276051 -72.19798647 83.33287208 -76.15405273 85.30004883 C-80.04296912 87.25107537 -83.89637322 89.26946516 -87.75 91.2890625 C-88.55308594 91.70607422 -89.35617187 92.12308594 -90.18359375 92.55273438 C-94.00166498 94.55459182 -97.72523139 96.61031143 -101.35546875 98.9375 C-105.11938806 101.33403973 -108.99775031 103.2129272 -113.0625 105.0390625 C-127.91100331 111.88302594 -142.17908121 119.84828138 -156.53271484 127.66137695 C-162.92143174 131.12652227 -169.35433017 134.46649591 -175.87231445 137.68066406 C-183.67478274 141.53136541 -191.3228692 145.64552237 -198.84765625 150.01171875 C-199.6483252 150.47078613 -200.44899414 150.92985352 -201.27392578 151.40283203 C-202.85026648 152.30819947 -204.42060369 153.22412361 -205.98388672 154.15185547 C-210.19783507 156.56236488 -213.27930072 158.25114744 -218.25 157.3515625 C-221.0025684 156.22967498 -223.54520488 154.82233131 -226.125 153.3515625 C-227.64229243 152.51652482 -229.16054456 151.68322889 -230.6796875 150.8515625 C-231.4437793 150.43003906 -232.20787109 150.00851562 -232.99511719 149.57421875 C-236.37007963 147.74422612 -239.80515411 146.04521398 -243.25 144.3515625 C-249.52583927 141.24695082 -255.71770419 138.00358922 -261.89453125 134.70703125 C-266.64418478 132.18025031 -271.42866951 129.73845393 -276.25 127.3515625 C-282.43059317 124.29174221 -288.54181049 121.11886796 -294.61328125 117.84765625 C-299.20100219 115.3902823 -303.84129324 113.0459162 -308.5 110.7265625 C-319.18282685 105.40729686 -329.78977733 99.94074807 -340.40478516 94.48779297 C-349.83341011 89.64559639 -359.27034411 84.82508313 -368.75894165 80.10136414 C-374.58629169 77.19553425 -380.36193678 74.19533662 -386.125 71.1640625 C-393.13045733 67.48379827 -400.15879983 63.86399169 -407.25 60.3515625 C-411.4249682 58.28146627 -411.4249682 58.28146627 -413.47460938 57.26367188 C-414.79416105 56.60849149 -416.11448783 55.95487007 -417.43554688 55.30273438 C-419.38199791 54.33430307 -421.31836109 53.34918964 -423.25 52.3515625 C-423.91338379 52.01141113 -424.57676758 51.67125977 -425.26025391 51.32080078 C-430.13152874 48.70697628 -430.13152874 48.70697628 -431.25 45.3515625 C-431.34548601 43.09142666 -431.38073536 40.82855728 -431.3828125 38.56640625 C-431.38376923 37.90951309 -431.38472595 37.25261993 -431.38571167 36.57582092 C-431.38639113 35.18978784 -431.38455314 33.80375155 -431.38037109 32.41772461 C-431.37501091 30.29338467 -431.3803283 28.16925533 -431.38671875 26.04492188 C-431.38605809 24.6979162 -431.38477719 23.35091065 -431.3828125 22.00390625 C-431.38168457 20.77663818 -431.38055664 19.54937012 -431.37939453 18.28491211 C-431.25 15.3515625 -431.25 15.3515625 -430.25 13.3515625 C-425.13698807 13.8411062 -421.60632595 15.68000104 -417.375 18.4140625 C-410.19366354 22.88576399 -402.81253725 26.70297882 -395.20898438 30.3984375 C-384.8753269 35.42617912 -374.64398362 40.66051927 -364.42782593 45.92184448 C-363.16407677 46.57227389 -361.89979236 47.22166462 -360.63491821 47.86990356 C-354.31266965 51.11200936 -348.05462584 54.419941 -341.9375 58.0390625 C-337.06969922 60.91714365 -332.14083627 63.44117813 -327 65.7890625 C-325.35221813 66.5559041 -323.70509259 67.32415743 -322.05859375 68.09375 C-321.25019043 68.47112305 -320.44178711 68.84849609 -319.60888672 69.23730469 C-314.0874578 71.84543981 -308.64763808 74.61949528 -303.19726562 77.37207031 C-301.23404971 78.35958564 -299.26632254 79.33747794 -297.296875 80.3125 C-286.21912285 85.80244367 -275.29410488 91.56153753 -264.40625 97.41796875 C-257.45909009 101.14980912 -250.46958456 104.76385474 -243.40380859 108.26611328 C-238.16906236 110.87002452 -232.98204595 113.5581154 -227.8125 116.2890625 C-227.07209473 116.67892334 -226.33168945 117.06878418 -225.56884766 117.47045898 C-220.37397743 120.22758507 -220.37397743 120.22758507 -219.25 121.3515625 C-214.71929701 121.70917497 -211.92605041 121.04292585 -207.94921875 118.90234375 C-206.97146484 118.38349609 -205.99371094 117.86464844 -204.98632812 117.33007812 C-203.98021484 116.78029297 -202.97410156 116.23050781 -201.9375 115.6640625 C-200.94298828 115.13361328 -199.94847656 114.60316406 -198.92382812 114.05664062 C-194.45406059 111.6647427 -190.01227032 109.22511108 -185.5859375 106.75390625 C-181.16240604 104.28626035 -176.68025646 101.94009621 -172.1875 99.6015625 C-165.22058202 95.95865304 -158.32732562 92.20895337 -151.50170898 88.30761719 C-147.80395508 86.19855345 -144.06364915 84.24125258 -140.25 82.3515625 C-137.61760805 80.96960128 -134.99747577 79.56473043 -132.375 78.1640625 C-126.86858209 75.23536908 -121.33985817 72.36757221 -115.75 69.6015625 C-101.19231836 62.3888168 -86.78202241 54.85644609 -72.50390625 47.10546875 C-68.12127707 44.74316323 -63.71785159 42.42115758 -59.3125 40.1015625 C-58.50635254 39.67657471 -57.70020508 39.25158691 -56.86962891 38.8137207 C-53.61753625 37.10332811 -50.36510524 35.40840809 -47.0703125 33.78125 C-37.72290229 29.5137546 -37.72290229 29.5137546 -31.37109375 22.14453125 C-31.24863281 21.40847656 -31.12617187 20.67242187 -31 19.9140625 C-30.44937832 17.33413348 -29.86767239 15.83556863 -27.76757812 14.18994141 C-23.75158124 11.66028834 -19.51030136 9.56400819 -15.27539062 7.43017578 C-11.46528719 5.40112118 -7.99634991 2.87419388 -4.484375 0.37109375 C-2.25 -0.6484375 -2.25 -0.6484375 0 0 Z " fill="#2BE18F" transform="translate(618.25,284.6484375)"/>
</svg>