<svg width="130" height="42" viewBox="0 0 130 42" fill="none" xmlns="http://www.w3.org/2000/svg">
<path fill-rule="evenodd" clip-rule="evenodd" d="M32.4128 41.0541H21.1928L12.7791 8.95547C12.3798 7.47894 11.5319 6.1736 10.2846 5.55837C7.17185 4.01229 3.74183 2.78185 0 2.16127V0.925479H18.0746C20.5691 0.925479 22.4401 2.78185 22.7519 4.9378L27.1174 28.0916L38.3319 0.925479H49.2401L32.4128 41.0541ZM55.4765 41.0541H44.8801L53.6056 0.925479H64.202L55.4765 41.0541ZM77.9111 12.0423C78.223 9.88101 80.0939 8.64522 82.2766 8.64522C85.7066 8.33493 89.443 8.9555 92.5612 10.4962L94.4321 1.85637C91.3139 0.620572 87.8839 0 84.7712 0C74.4866 0 67.0029 5.5584 67.0029 13.2728C67.0029 19.1415 72.3038 22.2229 76.0457 24.0793C80.0939 25.9303 81.653 27.1661 81.3411 29.0171C81.3411 31.7936 78.2229 33.0294 75.1102 33.0294C71.3684 33.0294 67.6266 32.1039 64.202 30.5578L62.3311 39.2031C66.0729 40.7438 70.1211 41.3644 73.8629 41.3644C85.3948 41.6693 92.5612 36.1162 92.5612 27.7813C92.5612 17.2851 77.9111 16.6699 77.9111 12.0423ZM129.646 41.0541L121.232 0.925479H112.195C110.324 0.925479 108.453 2.16127 107.829 4.01229L92.2494 41.0541H103.158L105.335 35.1907H118.738L119.985 41.0541H129.646ZM113.754 11.732L116.867 26.8558H108.141L113.754 11.732Z" fill="#172B85"/>
</svg>
